# xmcd
#
# Track frame offsets: 
#        150
#        16820
#        39081
#        57439
#        78317
#        98960
#        115783
#        138575
#        156378
#        175647
#
# Disc length: 2591 seconds
#
# Revision: 0
# Processed by: cddbd v1.5.2PL0 Copyright (c) Steve Scherf et al.
# Submitted via: ExactAudioCopy v0.99pb4
#
DISCID=750a1d0a
DTITLE=Wale Oyejide - Broken Jazz 101
DYEAR=2004
DGENRE=Hip-Hop
TTITLE0=Living in Ghetto
TTITLE1=Music Is the Weapon (Wahala)
TTITLE2=Money
TTITLE3=Hold On To... featuring MF Doom
TTITLE4=This Is Dedicated To...
TTITLE5=Kaya
TTITLE6=Get Down
TTITLE7=Bonus Cuts 1
TTITLE8=Bonus Cuts 2
TTITLE9=Bonus Cuts 3
EXTD=
EXTT0=
EXTT1=
EXTT2=
EXTT3=
EXTT4=
EXTT5=
EXTT6=
EXTT7=
EXTT8=
EXTT9=
PLAYORDER=
